<svg xmlns="http://www.w3.org/2000/svg" xmlns:xlink="http://www.w3.org/1999/xlink" version="1.1" width="1000" height="1000" viewBox="0 0 1000 1000" xml:space="preserve">
<desc>Created with Fabric.js 3.5.0</desc>
<defs>
</defs>
<rect x="0" y="0" width="100%" height="100%" fill="rgba(255,255,255,0)"/>
<g transform="matrix(-1 0 0 -1 333.7511 1054.4891)" id="26138">
<g style="">
		<g transform="matrix(0.8333 0 0 0.8333 -146.1121 -194.7552)" id="55537">
<path style="stroke: none; stroke-width: 1; stroke-dasharray: none; stroke-linecap: butt; stroke-dashoffset: 0; stroke-linejoin: miter; stroke-miterlimit: 4; is-custom-font: none; font-file-url: none; fill: rgb(255,250,114); fill-rule: nonzero; opacity: 1;" transform=" translate(-1010.735, -96.4999)" d="M 734.567 34.372 c -28.692 61.724 -23.266 100.422 16.275 116.094 c 59.313 23.508 200.347 32.911 259.299 83.906 c 58.95 50.994 238.697 11.572 269.438 -75.95 C 1310.32 70.9 1365.669 -64 1073.808 -64 c -194.576 0 -307.654 32.79 -339.24 98.372 h -0.001 z" stroke-linecap="round"/>
</g>
		<g transform="matrix(2.3333 0 1.3471 2.3333 -0.0129 -0.0054)" id="982403">
<path style="stroke: none; stroke-width: 1; stroke-dasharray: none; stroke-linecap: butt; stroke-dashoffset: 0; stroke-linejoin: miter; stroke-miterlimit: 4; is-custom-font: none; font-file-url: none; fill: rgb(175,230,255); fill-rule: nonzero; opacity: 1;" transform=" translate(-1010.735, -96.4999)" d="M 734.567 34.372 c -28.692 61.724 -23.266 100.422 16.275 116.094 c 59.313 23.508 200.347 32.911 259.299 83.906 c 58.95 50.994 238.697 11.572 269.438 -75.95 C 1310.32 70.9 1365.669 -64 1073.808 -64 c -194.576 0 -307.654 32.79 -339.24 98.372 h -0.001 z" stroke-linecap="round"/>
</g>
		<g transform="matrix(2.2083 0 1.1496 2.2083 -20.4195 -16.2346)" id="303449">
<path style="stroke: none; stroke-width: 1; stroke-dasharray: none; stroke-linecap: butt; stroke-dashoffset: 0; stroke-linejoin: miter; stroke-miterlimit: 4; is-custom-font: none; font-file-url: none; fill: rgb(160,217,255); fill-rule: nonzero; opacity: 1;" transform=" translate(-1010.735, -96.4999)" d="M 734.567 34.372 c -28.692 61.724 -23.266 100.422 16.275 116.094 c 59.313 23.508 200.347 32.911 259.299 83.906 c 58.95 50.994 238.697 11.572 269.438 -75.95 C 1310.32 70.9 1365.669 -64 1073.808 -64 c -194.576 0 -307.654 32.79 -339.24 98.372 h -0.001 z" stroke-linecap="round"/>
</g>
		<g transform="matrix(2.0833 0 0.9715 2.0833 -38.9488 -32.4636)" id="668662">
<path style="stroke: none; stroke-width: 1; stroke-dasharray: none; stroke-linecap: butt; stroke-dashoffset: 0; stroke-linejoin: miter; stroke-miterlimit: 4; is-custom-font: none; font-file-url: none; fill: rgb(144,204,255); fill-rule: nonzero; opacity: 1;" transform=" translate(-1010.735, -96.4999)" d="M 734.567 34.372 c -28.692 61.724 -23.266 100.422 16.275 116.094 c 59.313 23.508 200.347 32.911 259.299 83.906 c 58.95 50.994 238.697 11.572 269.438 -75.95 C 1310.32 70.9 1365.669 -64 1073.808 -64 c -194.576 0 -307.654 32.79 -339.24 98.372 h -0.001 z" stroke-linecap="round"/>
</g>
		<g transform="matrix(1.9583 0 0.8112 1.9583 -55.7599 -48.6928)" id="862558">
<path style="stroke: none; stroke-width: 1; stroke-dasharray: none; stroke-linecap: butt; stroke-dashoffset: 0; stroke-linejoin: miter; stroke-miterlimit: 4; is-custom-font: none; font-file-url: none; fill: rgb(128,191,255); fill-rule: nonzero; opacity: 1;" transform=" translate(-1010.735, -96.4999)" d="M 734.567 34.372 c -28.692 61.724 -23.266 100.422 16.275 116.094 c 59.313 23.508 200.347 32.911 259.299 83.906 c 58.95 50.994 238.697 11.572 269.438 -75.95 C 1310.32 70.9 1365.669 -64 1073.808 -64 c -194.576 0 -307.654 32.79 -339.24 98.372 h -0.001 z" stroke-linecap="round"/>
</g>
		<g transform="matrix(1.8333 0 0.6673 1.8333 -70.9868 -64.922)" id="186052">
<path style="stroke: none; stroke-width: 1; stroke-dasharray: none; stroke-linecap: butt; stroke-dashoffset: 0; stroke-linejoin: miter; stroke-miterlimit: 4; is-custom-font: none; font-file-url: none; fill: rgb(112,178,255); fill-rule: nonzero; opacity: 1;" transform=" translate(-1010.735, -96.4999)" d="M 734.567 34.372 c -28.692 61.724 -23.266 100.422 16.275 116.094 c 59.313 23.508 200.347 32.911 259.299 83.906 c 58.95 50.994 238.697 11.572 269.438 -75.95 C 1310.32 70.9 1365.669 -64 1073.808 -64 c -194.576 0 -307.654 32.79 -339.24 98.372 h -0.001 z" stroke-linecap="round"/>
</g>
		<g transform="matrix(1.7083 0 0.5386 1.7083 -84.7425 -81.1511)" id="451734">
<path style="stroke: none; stroke-width: 1; stroke-dasharray: none; stroke-linecap: butt; stroke-dashoffset: 0; stroke-linejoin: miter; stroke-miterlimit: 4; is-custom-font: none; font-file-url: none; fill: rgb(97,166,255); fill-rule: nonzero; opacity: 1;" transform=" translate(-1010.735, -96.4999)" d="M 734.567 34.372 c -28.692 61.724 -23.266 100.422 16.275 116.094 c 59.313 23.508 200.347 32.911 259.299 83.906 c 58.95 50.994 238.697 11.572 269.438 -75.95 C 1310.32 70.9 1365.669 -64 1073.808 -64 c -194.576 0 -307.654 32.79 -339.24 98.372 h -0.001 z" stroke-linecap="round"/>
</g>
		<g transform="matrix(1.5833 0 0.4242 1.5833 -97.122 -97.3803)" id="353817">
<path style="stroke: none; stroke-width: 1; stroke-dasharray: none; stroke-linecap: butt; stroke-dashoffset: 0; stroke-linejoin: miter; stroke-miterlimit: 4; is-custom-font: none; font-file-url: none; fill: rgb(81,153,255); fill-rule: nonzero; opacity: 1;" transform=" translate(-1010.735, -96.4999)" d="M 734.567 34.372 c -28.692 61.724 -23.266 100.422 16.275 116.094 c 59.313 23.508 200.347 32.911 259.299 83.906 c 58.95 50.994 238.697 11.572 269.438 -75.95 C 1310.32 70.9 1365.669 -64 1073.808 -64 c -194.576 0 -307.654 32.79 -339.24 98.372 h -0.001 z" stroke-linecap="round"/>
</g>
		<g transform="matrix(1.4583 0 0.3233 1.4583 -108.2051 -113.6095)" id="812772">
<path style="stroke: none; stroke-width: 1; stroke-dasharray: none; stroke-linecap: butt; stroke-dashoffset: 0; stroke-linejoin: miter; stroke-miterlimit: 4; is-custom-font: none; font-file-url: none; fill: rgb(65,140,255); fill-rule: nonzero; opacity: 1;" transform=" translate(-1010.735, -96.4999)" d="M 734.567 34.372 c -28.692 61.724 -23.266 100.422 16.275 116.094 c 59.313 23.508 200.347 32.911 259.299 83.906 c 58.95 50.994 238.697 11.572 269.438 -75.95 C 1310.32 70.9 1365.669 -64 1073.808 -64 c -194.576 0 -307.654 32.79 -339.24 98.372 h -0.001 z" stroke-linecap="round"/>
</g>
		<g transform="matrix(1.3333 0 0.2351 1.3333 -118.0582 -129.8386)" id="211911">
<path style="stroke: none; stroke-width: 1; stroke-dasharray: none; stroke-linecap: butt; stroke-dashoffset: 0; stroke-linejoin: miter; stroke-miterlimit: 4; is-custom-font: none; font-file-url: none; fill: rgb(49,127,255); fill-rule: nonzero; opacity: 1;" transform=" translate(-1010.735, -96.4999)" d="M 734.567 34.372 c -28.692 61.724 -23.266 100.422 16.275 116.094 c 59.313 23.508 200.347 32.911 259.299 83.906 c 58.95 50.994 238.697 11.572 269.438 -75.95 C 1310.32 70.9 1365.669 -64 1073.808 -64 c -194.576 0 -307.654 32.79 -339.24 98.372 h -0.001 z" stroke-linecap="round"/>
</g>
		<g transform="matrix(1.2083 0 0.1591 1.2083 -126.736 -146.0677)" id="610931">
<path style="stroke: none; stroke-width: 1; stroke-dasharray: none; stroke-linecap: butt; stroke-dashoffset: 0; stroke-linejoin: miter; stroke-miterlimit: 4; is-custom-font: none; font-file-url: none; fill: rgb(33,114,255); fill-rule: nonzero; opacity: 1;" transform=" translate(-1010.735, -96.4999)" d="M 734.567 34.372 c -28.692 61.724 -23.266 100.422 16.275 116.094 c 59.313 23.508 200.347 32.911 259.299 83.906 c 58.95 50.994 238.697 11.572 269.438 -75.95 C 1310.32 70.9 1365.669 -64 1073.808 -64 c -194.576 0 -307.654 32.79 -339.24 98.372 h -0.001 z" stroke-linecap="round"/>
</g>
		<g transform="matrix(1.0833 0 0.0948 1.0833 -134.2827 -162.2969)" id="62595">
<path style="stroke: none; stroke-width: 1; stroke-dasharray: none; stroke-linecap: butt; stroke-dashoffset: 0; stroke-linejoin: miter; stroke-miterlimit: 4; is-custom-font: none; font-file-url: none; fill: rgb(18,101,255); fill-rule: nonzero; opacity: 1;" transform=" translate(-1010.735, -96.4999)" d="M 734.567 34.372 c -28.692 61.724 -23.266 100.422 16.275 116.094 c 59.313 23.508 200.347 32.911 259.299 83.906 c 58.95 50.994 238.697 11.572 269.438 -75.95 C 1310.32 70.9 1365.669 -64 1073.808 -64 c -194.576 0 -307.654 32.79 -339.24 98.372 h -0.001 z" stroke-linecap="round"/>
</g>
		<g transform="matrix(0.9583 0 0.0418 0.9583 -140.7327 -178.526)" id="416147">
<path style="stroke: none; stroke-width: 1; stroke-dasharray: none; stroke-linecap: butt; stroke-dashoffset: 0; stroke-linejoin: miter; stroke-miterlimit: 4; is-custom-font: none; font-file-url: none; fill: rgb(2,88,255); fill-rule: nonzero; opacity: 1;" transform=" translate(-1010.735, -96.4999)" d="M 734.567 34.372 c -28.692 61.724 -23.266 100.422 16.275 116.094 c 59.313 23.508 200.347 32.911 259.299 83.906 c 58.95 50.994 238.697 11.572 269.438 -75.95 C 1310.32 70.9 1365.669 -64 1073.808 -64 c -194.576 0 -307.654 32.79 -339.24 98.372 h -0.001 z" stroke-linecap="round"/>
</g>
</g>
</g>
</svg>